<svg aria-hidden="true" style="position: absolute; width: 0; height: 0; overflow: hidden;" version="1.1" xmlns="http://www.w3.org/2000/svg" xmlns:xlink="http://www.w3.org/1999/xlink">
<defs>
<symbol id="icon-whats-app" viewBox="0 0 32 32">
<path fill="#000" style="fill: var(--color1, #000)" d="M31.998 23.911c0 0.175-0.005 0.555-0.016 0.849-0.026 0.718-0.083 1.645-0.169 2.067-0.129 0.635-0.325 1.233-0.579 1.732-0.301 0.59-0.686 1.118-1.142 1.574-0.456 0.455-0.983 0.838-1.572 1.138-0.501 0.255-1.104 0.451-1.742 0.58-0.418 0.084-1.338 0.14-2.052 0.166-0.294 0.011-0.674 0.016-0.848 0.016l-15.757-0.003c-0.175 0-0.555-0.005-0.849-0.016-0.718-0.026-1.645-0.083-2.067-0.169-0.635-0.129-1.234-0.325-1.732-0.579-0.59-0.301-1.118-0.686-1.574-1.142-0.455-0.456-0.838-0.983-1.138-1.572-0.255-0.501-0.451-1.104-0.58-1.742-0.084-0.418-0.14-1.338-0.166-2.052-0.010-0.294-0.016-0.674-0.016-0.848l0.003-15.757c0-0.175 0.005-0.555 0.016-0.849 0.026-0.718 0.083-1.645 0.169-2.067 0.129-0.635 0.325-1.234 0.579-1.732 0.301-0.59 0.686-1.118 1.142-1.574s0.984-0.838 1.572-1.138c0.501-0.255 1.104-0.451 1.742-0.58 0.418-0.084 1.338-0.14 2.051-0.166 0.294-0.010 0.674-0.016 0.848-0.016l15.757 0.003c0.175 0 0.555 0.005 0.849 0.016 0.718 0.026 1.645 0.083 2.067 0.169 0.635 0.129 1.233 0.325 1.732 0.579 0.59 0.301 1.118 0.686 1.574 1.142s0.838 0.983 1.138 1.572c0.255 0.501 0.451 1.104 0.58 1.742 0.084 0.418 0.14 1.338 0.166 2.052 0.010 0.294 0.016 0.674 0.016 0.848l-0.003 15.757z"></path>
<path fill="#fff" style="fill: var(--color2, #fff)" d="M24.478 7.601c-2.167-2.168-5.048-3.363-8.118-3.364-6.325 0-11.473 5.146-11.475 11.471-0.001 2.022 0.528 3.995 1.532 5.735l-1.628 5.945 6.083-1.595c1.676 0.914 3.563 1.395 5.484 1.396h0.005c6.324 0 11.473-5.146 11.475-11.472 0.001-3.065-1.191-5.947-3.358-8.116zM16.361 25.251h-0.004c-1.711-0.001-3.39-0.46-4.854-1.329l-0.348-0.207-3.61 0.947 0.964-3.518-0.227-0.361c-0.955-1.518-1.459-3.273-1.458-5.074 0.002-5.257 4.281-9.534 9.542-9.534 2.548 0.001 4.942 0.994 6.743 2.796s2.792 4.198 2.791 6.746c-0.002 5.258-4.281 9.535-9.538 9.535zM21.592 18.11c-0.287-0.143-1.696-0.837-1.959-0.933s-0.454-0.143-0.645 0.143c-0.191 0.287-0.741 0.933-0.908 1.124s-0.334 0.215-0.621 0.072-1.211-0.446-2.306-1.423c-0.852-0.76-1.428-1.699-1.595-1.986s-0.018-0.442 0.126-0.585c0.129-0.128 0.287-0.335 0.43-0.502s0.191-0.287 0.287-0.478c0.096-0.191 0.048-0.359-0.024-0.502s-0.645-1.554-0.884-2.128c-0.233-0.559-0.469-0.483-0.645-0.492-0.167-0.008-0.358-0.010-0.55-0.010s-0.502 0.072-0.765 0.359-1.004 0.98-1.004 2.391c0 1.411 1.027 2.774 1.171 2.965s2.022 3.087 4.898 4.328c0.684 0.295 1.218 0.472 1.635 0.604 0.687 0.218 1.312 0.187 1.806 0.114 0.551-0.082 1.696-0.693 1.935-1.363s0.239-1.243 0.167-1.363-0.263-0.191-0.55-0.335z"></path>
</symbol>
<symbol id="icon-x-close" viewBox="0 0 22 32">
<path d="M15.17 16l6.254-6.254c0.767-0.768 0.767-2.012 0-2.78l-1.39-1.39c-0.767-0.768-2.012-0.768-2.78 0l-6.254 6.254-6.254-6.254c-0.768-0.768-2.012-0.768-2.78 0l-1.39 1.39c-0.767 0.768-0.767 2.012 0 2.78l6.254 6.254-6.254 6.254c-0.767 0.767-0.767 2.012 0 2.78l1.39 1.39c0.767 0.767 2.013 0.767 2.78 0l6.254-6.254 6.254 6.254c0.767 0.767 2.012 0.767 2.78 0l1.39-1.39c0.767-0.767 0.767-2.012 0-2.78l-6.254-6.254z"></path>
</symbol>
<symbol id="icon-youtube" viewBox="0 0 36 32">
<path d="M34.353 7.755c-0.393-1.478-1.549-2.642-3.018-3.037-2.662-0.718-13.336-0.718-13.336-0.718s-10.674 0-13.336 0.718c-1.469 0.395-2.625 1.559-3.018 3.037-0.713 2.679-0.713 8.269-0.713 8.269s0 5.59 0.713 8.269c0.393 1.478 1.549 2.594 3.018 2.989 2.662 0.718 13.336 0.718 13.336 0.718s10.674 0 13.336-0.718c1.469-0.395 2.625-1.511 3.018-2.989 0.713-2.679 0.713-8.269 0.713-8.269s0-5.59-0.713-8.269zM14.509 21.099v-10.15l8.921 5.075-8.921 5.075z"></path>
</symbol>
<symbol id="icon-facebook" viewBox="0 0 20 32">
<path d="M17.446 18l0.889-5.791h-5.557v-3.758c0-1.584 0.776-3.129 3.265-3.129h2.526v-4.931s-2.293-0.391-4.484-0.391c-4.576 0-7.567 2.774-7.567 7.795v4.414h-5.087v5.791h5.087v14h6.261v-14z"></path>
</symbol>
<symbol id="icon-instagram" viewBox="0 0 28 32">
<path d="M14.006 8.813c-3.975 0-7.181 3.206-7.181 7.181s3.206 7.181 7.181 7.181 7.181-3.206 7.181-7.181-3.206-7.181-7.181-7.181zM14.006 20.663c-2.569 0-4.669-2.094-4.669-4.669s2.094-4.669 4.669-4.669 4.669 2.094 4.669 4.669-2.1 4.669-4.669 4.669zM23.156 8.519c0 0.931-0.75 1.675-1.675 1.675-0.931 0-1.675-0.75-1.675-1.675s0.75-1.675 1.675-1.675 1.675 0.75 1.675 1.675zM27.913 10.219c-0.106-2.244-0.619-4.231-2.262-5.869-1.637-1.638-3.625-2.15-5.869-2.263-2.313-0.131-9.244-0.131-11.556 0-2.237 0.106-4.225 0.619-5.869 2.256s-2.15 3.625-2.263 5.869c-0.131 2.313-0.131 9.244 0 11.556 0.106 2.244 0.619 4.231 2.263 5.869s3.625 2.15 5.869 2.262c2.313 0.131 9.244 0.131 11.556 0 2.244-0.106 4.231-0.619 5.869-2.262 1.637-1.637 2.15-3.625 2.262-5.869 0.131-2.313 0.131-9.238 0-11.55zM24.925 24.25c-0.488 1.225-1.431 2.169-2.663 2.663-1.844 0.731-6.219 0.563-8.256 0.563s-6.419 0.163-8.256-0.563c-1.225-0.488-2.169-1.431-2.663-2.663-0.731-1.844-0.563-6.219-0.563-8.256s-0.163-6.419 0.563-8.256c0.487-1.225 1.431-2.169 2.663-2.662 1.844-0.731 6.219-0.563 8.256-0.563s6.419-0.162 8.256 0.563c1.225 0.487 2.169 1.431 2.663 2.662 0.731 1.844 0.563 6.219 0.563 8.256s0.169 6.419-0.563 8.256z"></path>
</symbol>
<symbol id="icon-linkedin" viewBox="0 0 28 32">
<path d="M6.268 28h-5.805v-18.694h5.805zM3.362 6.756c-1.856 0-3.362-1.537-3.362-3.394s1.505-3.362 3.362-3.362 3.362 1.505 3.362 3.362v0c0 1.856-1.506 3.394-3.362 3.394zM27.994 28h-5.793v-9.1c0-2.169-0.044-4.95-3.018-4.95-3.018 0-3.481 2.356-3.481 4.794v9.256h-5.799v-18.694h5.568v2.55h0.081c0.775-1.469 2.668-3.019 5.492-3.019 5.875 0 6.955 3.869 6.955 8.894v10.269z"></path>
</symbol>
<symbol id="icon-calendar" viewBox="0 0 32 32">
<path d="M24.58 6.607h-2.587v-1.88c0-0.347-0.307-0.68-0.667-0.667s-0.667 0.293-0.667 0.667v1.88h-9.333v-1.88c0-0.347-0.307-0.68-0.667-0.667s-0.667 0.293-0.667 0.667v1.88h-2.573c-1.84 0-3.333 1.493-3.333 3.333v14.667c0 1.84 1.493 3.333 3.333 3.333h17.16c1.84 0 3.333-1.493 3.333-3.333v-14.667c0-1.84-1.493-3.333-3.333-3.333zM26.58 24.607c0 1.107-0.893 2-2 2h-17.16c-1.107 0-2-0.893-2-2v-11.227h21.16v11.227zM26.58 12.047h-21.16v-2.107c0-1.107 0.893-2 2-2h2.573v0.787c0 0.347 0.307 0.68 0.667 0.667s0.667-0.293 0.667-0.667v-0.787h9.333v0.787c0 0.347 0.307 0.68 0.667 0.667s0.667-0.293 0.667-0.667v-0.787h2.587c1.107 0 2 0.893 2 2v2.107z"></path>
<path d="M15.323 22.897v-4.613c0-0.079-0.085-0.127-0.152-0.085l-0.851 0.523c-0.133 0.081-0.304-0.013-0.304-0.171v-0.868c0-0.14 0.073-0.271 0.195-0.343l1.019-0.609c0.063-0.037 0.133-0.057 0.205-0.057h0.835c0.221 0 0.4 0.179 0.4 0.4v5.823c0 0.221-0.179 0.4-0.4 0.4h-0.545c-0.223 0.001-0.401-0.177-0.401-0.399z"></path>
</symbol>
<symbol id="icon-check-mark" viewBox="0 0 28 32">
<path d="M14 26c-0.512 0-1.024-0.195-1.414-0.586l-12-12c-0.781-0.781-0.781-2.047 0-2.828s2.047-0.781 2.828 0l10.586 10.589 10.587-10.588c0.781-0.781 2.047-0.781 2.828 0s0.781 2.047 0 2.828l-12 12c-0.391 0.391-0.903 0.584-1.416 0.584z"></path>
</symbol>
<symbol id="icon-so-shopping-bag-ui" viewBox="0 0 32 32">
<path d="M26.667 12h-4v-2.667c0-3.682-2.985-6.667-6.667-6.667s-6.667 2.985-6.667 6.667v0 2.667h-4l-1.333 17.333h24zM20 12h-8v-2.667c0-2.209 1.791-4 4-4s4 1.791 4 4v0z"></path>
</symbol>
<symbol id="icon-phone-call-outline" viewBox="0 0 32 32">
<path d="M17.333 10.667c2.209 0 4 1.791 4 4v0c0 0.736 0.597 1.333 1.333 1.333s1.333-0.597 1.333-1.333v0c0-3.682-2.985-6.667-6.667-6.667v0c-0.736 0-1.333 0.597-1.333 1.333s0.597 1.333 1.333 1.333v0z"></path>
<path d="M17.333 5.333c5.155 0 9.333 4.179 9.333 9.333v0c0 0.736 0.597 1.333 1.333 1.333s1.333-0.597 1.333-1.333v0c0-6.627-5.373-12-12-12v0c-0.736 0-1.333 0.597-1.333 1.333s0.597 1.333 1.333 1.333v0z"></path>
<path d="M29 21.213c-0.152-0.433-0.508-0.759-0.951-0.865l-0.009-0.002-8-1.827c-0.089-0.021-0.19-0.033-0.295-0.033-0.363 0-0.692 0.145-0.932 0.38l0-0c-0.187 0.173-0.2 0.187-1.067 1.84-2.886-1.352-5.153-3.627-6.459-6.439l-0.034-0.082c1.693-0.853 1.707-0.853 1.88-1.053 0.235-0.24 0.38-0.569 0.38-0.932 0-0.105-0.012-0.206-0.035-0.304l0.002 0.009-1.827-7.907c-0.107-0.452-0.433-0.808-0.857-0.957l-0.009-0.003c-0.274-0.102-0.598-0.186-0.932-0.236l-0.028-0.004c-0.304-0.074-0.657-0.122-1.018-0.133l-0.008-0c-3.387 0-6.133 2.746-6.133 6.133v0c0.015 11.334 9.199 20.518 20.532 20.533h0.001c3.387 0 6.133-2.746 6.133-6.133v0c0-0.002 0-0.005 0-0.008 0-0.355-0.029-0.703-0.085-1.043l0.005 0.037c-0.064-0.372-0.152-0.699-0.266-1.014l0.013 0.040zM23.2 26.667c-9.864-0.008-17.859-8.002-17.867-17.866v-0.001c0.008-1.912 1.555-3.459 3.466-3.467h0.441l1.427 6.187-0.72 0.373c-1.147 0.6-2.053 1.080-1.573 2.12 1.62 4.494 5.089 7.976 9.464 9.578l0.11 0.035c1.12 0.453 1.56-0.387 2.16-1.547l0.387-0.733 6.173 1.413v0.44c-0.008 1.912-1.555 3.459-3.466 3.467h-0.001z"></path>
</symbol>
<symbol id="icon-map-pin" viewBox="0 0 32 32">
<path stroke-linejoin="round" stroke-linecap="round" stroke-miterlimit="4" stroke-width="2.6667" d="M20 14.667c0 2.209-1.791 4-4 4s-4-1.791-4-4c0-2.209 1.791-4 4-4s4 1.791 4 4z"></path>
<path stroke-linejoin="round" stroke-linecap="round" stroke-miterlimit="4" stroke-width="2.6667" d="M23.543 22.209l-5.657 5.657c-0.482 0.482-1.149 0.78-1.885 0.78s-1.402-0.298-1.885-0.78l-5.659-5.657c-1.93-1.93-3.124-4.597-3.124-7.542 0-5.891 4.776-10.667 10.667-10.667s10.667 4.776 10.667 10.667c0 2.945-1.194 5.612-3.124 7.542v0z"></path>
</symbol>
<symbol id="icon-envelope-add" viewBox="0 0 32 32">
<path d="M22.667 9.333h1.333v1.333c0 0.736 0.597 1.333 1.333 1.333s1.333-0.597 1.333-1.333v0-1.333h1.333c0.736 0 1.333-0.597 1.333-1.333s-0.597-1.333-1.333-1.333v0h-1.333v-1.333c0-0.736-0.597-1.333-1.333-1.333s-1.333 0.597-1.333 1.333v0 1.333h-1.333c-0.736 0-1.333 0.597-1.333 1.333s0.597 1.333 1.333 1.333v0zM28 14.667c-0.736 0-1.333 0.597-1.333 1.333v0 8c0 0.736-0.597 1.333-1.333 1.333v0h-18.667c-0.736 0-1.333-0.597-1.333-1.333v0-12.787l7.84 7.853c0.724 0.723 1.723 1.17 2.827 1.17s2.103-0.447 2.827-1.17l3.293-3.293c0.242-0.242 0.392-0.577 0.392-0.947 0-0.739-0.599-1.339-1.339-1.339-0.37 0-0.704 0.15-0.947 0.392l-3.293 3.293c-0.24 0.236-0.57 0.381-0.933 0.381s-0.693-0.145-0.934-0.381l0 0-7.853-7.84h10.12c0.736 0 1.333-0.597 1.333-1.333s-0.597-1.333-1.333-1.333v0h-10.667c-2.209 0-4 1.791-4 4v0 13.333c0 2.209 1.791 4 4 4v0h18.667c2.209 0 4-1.791 4-4v0-8c0-0.736-0.597-1.333-1.333-1.333v0z"></path>
</symbol>

</defs>
</svg>
