<svg aria-hidden="true" style="position: absolute; width: 0; height: 0; overflow: hidden;" version="1.1" xmlns="http://www.w3.org/2000/svg" xmlns:xlink="http://www.w3.org/1999/xlink">
<defs>
<symbol id="icon-minus-solid" viewBox="0 0 28 32">
<path d="M27 16c0 1.106-0.894 2-2 2h-22c-1.106 0-2-0.894-2-2s0.894-2 2-2h22c1.106 0 2 0.894 2 2z"></path>
</symbol>
<symbol id="icon-plus-solid" viewBox="0 0 28 32">
<path d="M16 5c0-1.106-0.894-2-2-2s-2 0.894-2 2v9h-9c-1.106 0-2 0.894-2 2s0.894 2 2 2h9v9c0 1.106 0.894 2 2 2s2-0.894 2-2v-9h9c1.106 0 2-0.894 2-2s-0.894-2-2-2h-9v-9z"></path>
</symbol>
</defs>
</svg>
