<svg aria-hidden="true" style="position: absolute; width: 0; height: 0; overflow: hidden;" version="1.1" xmlns="http://www.w3.org/2000/svg" xmlns:xlink="http://www.w3.org/1999/xlink">
<defs>
<symbol id="icon-pencil" viewBox="0 0 41 32">
<path d="M21.163 9.963c-0.25 0.537-1.363 2.925-2.475 5.313-1.45 3.088-2 4.375-1.887 4.45 0.075 0.063 1.038 0.538 2.125 1.038 1.637 0.75 2.012 0.887 2.1 0.738 0.188-0.313 4.85-10.4 4.85-10.5 0-0.063-3.488-1.738-4.137-1.975-0.063-0.025-0.325 0.387-0.575 0.938z"></path>
<path d="M9.5 15.175l-3.063 1.913v1.45l3.063 1.913c1.688 1.063 3.088 1.925 3.125 1.925s0.25-0.288 0.463-0.65l0.4-0.637-2.463-1.538c-1.35-0.85-2.5-1.6-2.563-1.663-0.050-0.050 1-0.788 2.4-1.65 1.375-0.85 2.5-1.625 2.512-1.713 0-0.2-0.613-1.275-0.725-1.275-0.050 0-1.463 0.863-3.15 1.925z"></path>
<path d="M27.163 13.9c-0.212 0.363-0.387 0.662-0.375 0.675s1.163 0.738 2.563 1.612c1.4 0.875 2.5 1.637 2.438 1.688-0.050 0.063-1.2 0.788-2.538 1.625s-2.45 1.538-2.475 1.563c-0.050 0.050 0.75 1.313 0.837 1.313 0.050 0 1.462-0.863 3.137-1.913l3.063-1.913 0.038-0.688 0.038-0.7-3.137-1.963c-1.712-1.075-3.137-1.95-3.163-1.95-0.012 0-0.2 0.3-0.425 0.65z"></path>
<path d="M16.050 21.575c0.038 0.275 0.125 1.137 0.2 1.925s0.163 1.587 0.2 1.775l0.063 0.337 3.8-2.525-1.9-0.913c-2.55-1.212-2.45-1.188-2.363-0.6z"></path>
</symbol>
<symbol id="icon-full-logo" viewBox="0 0 74 32">
<path d="M45.574 10.374c0 0.031-0.485 1.099-1.075 2.371-0.596 1.271-1.069 2.346-1.063 2.377 0.037 0.098 1.843 0.921 1.898 0.866 0.086-0.086 2.211-4.705 2.193-4.76-0.025-0.061-1.8-0.909-1.898-0.909-0.031 0-0.055 0.025-0.055 0.055z"></path>
<path d="M12.253 12.081c-0.639 0.074-1.093 0.35-1.351 0.829-0.166 0.289-0.184 0.381-0.184 0.878 0 0.491 0.018 0.596 0.19 0.952 0.209 0.436 0.577 0.841 0.977 1.081 0.645 0.375 2.107 0.534 2.451 0.264l0.166-0.129-0.018-1.228c-0.018-1.13-0.031-1.235-0.135-1.314-0.147-0.104-1.572-0.123-1.763-0.025-0.135 0.074-0.166 0.418-0.043 0.54 0.049 0.049 0.276 0.074 0.614 0.074h0.54v1.474h-0.24c-0.584 0-1.364-0.393-1.652-0.835-0.27-0.418-0.326-0.946-0.135-1.345 0.203-0.418 0.369-0.479 1.492-0.51 0.921-0.025 0.977-0.037 1.063-0.166 0.117-0.184 0.025-0.442-0.19-0.522-0.147-0.055-1.364-0.074-1.781-0.018z"></path>
<path d="M15.539 12.112c-0.172 0.068-0.221 0.117-0.233 0.264-0.025 0.338 0.031 0.362 0.934 0.405 0.897 0.037 1.020 0.080 1.020 0.362 0 0.264-0.252 0.516-0.897 0.891-0.602 0.356-0.97 0.639-1.075 0.835-0.031 0.061-0.086 0.258-0.117 0.43-0.086 0.43 0.012 0.774 0.233 0.86 0.233 0.086 2.745 0.049 2.844-0.049 0.104-0.104 0.086-0.381-0.031-0.498-0.086-0.086-0.276-0.111-1.179-0.123-1.075-0.018-1.075-0.018-1.032-0.154 0.068-0.233 0.338-0.461 0.848-0.725 0.725-0.375 0.995-0.577 1.173-0.878 0.313-0.54 0.123-1.235-0.418-1.505-0.252-0.123-0.405-0.147-1.075-0.166-0.528-0.018-0.848 0-0.995 0.049z"></path>
<path d="M19.869 12.094c-0.627 0.098-0.952 0.412-0.952 0.915 0 0.602 0.27 0.866 1.044 1.026 0.252 0.055 0.602 0.135 0.78 0.19 0.504 0.147 0.688 0.479 0.485 0.878-0.141 0.27-0.356 0.332-1.296 0.362-0.473 0.012-0.909 0.049-0.964 0.080-0.154 0.080-0.147 0.436 0.012 0.577 0.104 0.092 0.215 0.104 1.026 0.074 0.497-0.012 1.020-0.061 1.155-0.104 0.326-0.098 0.792-0.571 0.884-0.891 0.104-0.381 0.080-0.719-0.068-1.013-0.197-0.381-0.522-0.59-1.185-0.743-0.915-0.215-1.044-0.258-1.069-0.387-0.037-0.227 0.154-0.283 0.995-0.283 0.43 0 0.841-0.031 0.909-0.061 0.147-0.080 0.16-0.442 0.012-0.559-0.117-0.098-1.271-0.135-1.769-0.061z"></path>
<path d="M24.703 12.137c-0.111 0.074-0.135 0.154-0.135 0.418 0 0.706 0.467 2.696 0.774 3.298 0.154 0.301 0.233 0.362 0.522 0.362 0.338 0 0.627-0.479 0.878-1.468l0.135-0.547 0.080 0.375c0.111 0.528 0.412 1.29 0.59 1.48 0.197 0.215 0.51 0.215 0.725 0.006 0.283-0.289 0.805-2.199 0.878-3.231 0.037-0.485 0.031-0.54-0.092-0.663-0.16-0.16-0.319-0.166-0.491-0.025-0.111 0.092-0.147 0.233-0.221 0.891-0.049 0.43-0.117 0.915-0.154 1.075-0.123 0.571-0.264 1.063-0.307 1.063-0.172 0-0.504-1.284-0.577-2.211-0.068-0.829-0.203-1.020-0.596-0.86-0.203 0.086-0.197 0.068-0.326 1.155-0.092 0.774-0.326 1.658-0.497 1.892-0.061 0.092-0.092 0.031-0.203-0.381-0.129-0.461-0.27-1.345-0.356-2.131-0.055-0.528-0.301-0.725-0.627-0.498z"></path>
<path fill="orange" d="M30.108 12.1c-0.074 0.031-0.166 0.129-0.197 0.215-0.086 0.221-0.080 3.249 0.006 3.55 0.043 0.16 0.111 0.252 0.215 0.289 0.086 0.037 0.602 0.061 1.149 0.061 0.805 0 1.026-0.018 1.136-0.098 0.154-0.104 0.178-0.313 0.049-0.491-0.080-0.104-0.178-0.117-0.921-0.135l-0.835-0.025v-1.523h0.792c0.639 0 0.817-0.018 0.891-0.098 0.123-0.123 0.123-0.264 0-0.442-0.086-0.129-0.135-0.135-0.891-0.135h-0.792v-0.491h0.786c0.608 0 0.811-0.018 0.921-0.098 0.154-0.104 0.178-0.313 0.049-0.491-0.080-0.104-0.178-0.117-1.155-0.129-0.584-0.012-1.124 0.012-1.204 0.043z"></path>
<path d="M33.566 12.075c-0.264 0.074-0.276 0.141-0.276 2.051 0 1.474 0.018 1.843 0.086 1.941 0.080 0.104 0.172 0.117 1.124 0.117 1.007 0 1.038-0.006 1.308-0.166 0.688-0.399 0.749-1.351 0.129-2.008l-0.197-0.209 0.154-0.16c0.283-0.301 0.362-0.743 0.197-1.142-0.16-0.375-0.301-0.418-1.413-0.436-0.541-0.012-1.044-0.006-1.112 0.012zM35.188 12.782c0.16 0.055 0.19 0.098 0.19 0.264 0 0.117-0.049 0.246-0.117 0.307-0.104 0.092-0.147 0.092-0.676-0.006l-0.559-0.104v-0.221c0-0.123 0.018-0.246 0.043-0.264 0.068-0.068 0.903-0.049 1.118 0.025zM34.758 14.084c0.184 0.068 0.43 0.221 0.565 0.356 0.209 0.209 0.24 0.276 0.24 0.51 0 0.221-0.031 0.295-0.16 0.399-0.141 0.111-0.252 0.129-0.768 0.129h-0.608v-1.597l0.203 0.043c0.104 0.018 0.344 0.092 0.528 0.16z"></path>
<path d="M57.489 12.149c-0.725 0.356-1.892 3.704-1.407 4.011 0.135 0.086 0.461 0.061 0.541-0.031 0.037-0.049 0.111-0.313 0.154-0.596 0.049-0.283 0.123-0.639 0.166-0.786l0.080-0.264 0.35 0.031c0.393 0.037 0.866 0.258 1.136 0.54 0.092 0.098 0.233 0.381 0.326 0.651 0.154 0.461 0.166 0.479 0.362 0.497 0.135 0.012 0.252-0.018 0.332-0.092 0.111-0.098 0.123-0.16 0.092-0.498-0.080-0.817-0.921-2.844-1.4-3.341-0.246-0.264-0.405-0.289-0.731-0.123zM58.091 13.371c0.141 0.301 0.276 0.608 0.313 0.694l0.055 0.16-0.307-0.154c-0.166-0.080-0.436-0.16-0.602-0.178-0.172-0.012-0.307-0.037-0.307-0.043 0-0.123 0.491-1.013 0.559-1.013 0.018 0 0.147 0.24 0.289 0.534z"></path>
<path d="M53.552 12.204c-0.068 0.074-0.092 0.448-0.104 1.671-0.025 1.738 0 2.045 0.178 2.223 0.104 0.104 0.209 0.117 1.026 0.117 0.811 0 0.927-0.012 1.013-0.111 0.141-0.154 0.129-0.356-0.018-0.504-0.104-0.104-0.203-0.123-0.768-0.123h-0.645v-1.554c0-1.744-0.018-1.824-0.393-1.824-0.117 0-0.246 0.043-0.289 0.104z"></path>
<path   d="M60.37 12.198c-0.068 0.086-0.092 0.436-0.104 1.707-0.012 0.884-0.006 1.72 0.018 1.861 0.061 0.436 0.098 0.448 1.198 0.448 0.94 0 0.977-0.006 1.296-0.172 0.719-0.375 0.805-1.259 0.197-1.972l-0.221-0.258 0.16-0.166c0.344-0.362 0.344-1.050 0.006-1.37-0.154-0.141-0.184-0.147-1.308-0.166-1.026-0.018-1.161-0.006-1.241 0.086zM62.286 12.837c0.16 0.086 0.147 0.326-0.025 0.522-0.123 0.147-0.154 0.154-0.319 0.092-0.098-0.037-0.338-0.086-0.522-0.111l-0.338-0.043-0.018-0.264-0.018-0.258h0.559c0.307 0 0.614 0.031 0.682 0.061zM61.709 14.078c0.78 0.289 1.136 1.007 0.651 1.321-0.111 0.074-0.326 0.111-0.731 0.129l-0.577 0.025v-1.609h0.154c0.080 0 0.307 0.061 0.504 0.135z"></path>
<path fill="orange" d="M40.157 13.101l-1.4 0.872v0.639l1.382 0.86c0.762 0.479 1.4 0.866 1.425 0.866 0.049 0 0.405-0.559 0.375-0.577-0.012-0.012-0.522-0.332-1.136-0.712-0.62-0.387-1.124-0.719-1.124-0.737 0-0.025 0.326-0.24 0.725-0.491 0.393-0.252 0.909-0.571 1.136-0.719l0.418-0.264-0.172-0.307c-0.092-0.172-0.184-0.307-0.203-0.307-0.018 0.006-0.657 0.399-1.425 0.878z"></path>
<path fill="orange" d="M48.154 12.511c-0.147 0.227-0.172 0.307-0.111 0.362 0.043 0.037 0.559 0.362 1.142 0.731 0.577 0.362 1.056 0.676 1.056 0.7 0 0.018-0.491 0.338-1.087 0.712-0.596 0.369-1.112 0.694-1.142 0.719-0.080 0.049 0.24 0.602 0.344 0.602 0.043-0.006 0.682-0.387 1.425-0.854l1.351-0.848v-0.657l-2.801-1.757-0.178 0.289z"></path>
<path fill="orange" d="M43.117 15.902c0 0.209 0.184 1.867 0.209 1.898 0.018 0.012 0.405-0.233 0.872-0.547l0.848-0.571-0.94-0.448c-0.516-0.246-0.952-0.448-0.964-0.448s-0.025 0.055-0.025 0.117z"></path>
</symbol>
<symbol id="icon-logo1" viewBox="0 0 88 32">
<path d="M4.759 3.996c0.96 1.009 2.33 2.437 3.979 4.152 0.952 0.993 1.756 1.846 1.789 1.912 0.057 0.098 1.132 0.115 6.95 0.115 3.791 0 6.892 0.016 6.892 0.049 0 0.057-0.5 1.92-0.55 2.059-0.033 0.090 0.829 0.107 4.554 0.107h4.587l0.131-0.476c0.476-1.707 2.191-8.213 2.191-8.295 0-0.066-3.897-0.090-15.483-0.090h-15.483l0.443 0.468z"></path>
<path d="M37.998 3.668c-0.066 0.139-1.731 6.318-1.731 6.449 0 0.033 3.085 0.057 6.859 0.057 6.49 0 6.851 0.008 6.81 0.139-0.016 0.082-0.131 0.517-0.254 0.968-0.115 0.451-0.23 0.886-0.254 0.96-0.041 0.139-0.386 0.148-5.76 0.148h-5.727l-1.444 1.108c-0.796 0.615-1.469 1.173-1.493 1.255-0.025 0.074-0.558 2.068-1.198 4.431-0.976 3.618-1.132 4.316-1.050 4.431 0.386 0.525 1.469 1.895 1.567 1.969 0.090 0.074 2.65 0.090 10.404 0.082l10.281-0.025 0.878-3.257c0.476-1.797 0.853-3.282 0.829-3.307s-3.102-0.041-6.843-0.041c-6.416 0-6.794-0.008-6.786-0.148 0-0.074 0.123-0.566 0.263-1.083l0.263-0.944 11.528-0.082 1.395-1.067c1.346-1.026 1.403-1.083 1.518-1.477 0.066-0.23 0.599-2.215 1.19-4.423l1.075-4.012-0.205-0.295c-0.115-0.164-0.501-0.665-0.845-1.116l-0.64-0.821-10.273-0.025c-9.723-0.016-10.281-0.008-10.355 0.123z"></path>
<path d="M64.525 4.652l-1.461 1.132-1.132 4.185c-0.624 2.297-1.149 4.3-1.182 4.431-0.041 0.23 0.049 0.377 0.788 1.337l0.829 1.083h5.735c3.159 0 5.744 0.025 5.744 0.049 0 0.066-0.394 1.534-0.501 1.895l-0.090 0.271h-13.76l-0.082 0.304c-0.049 0.172-0.435 1.633-0.862 3.249-0.435 1.625-0.788 2.978-0.788 3.020s4.16 0.074 10.297 0.074h10.297l1.403-1.075c0.771-0.599 1.436-1.157 1.477-1.255 0.123-0.287 2.617-9.616 2.617-9.78-0.008-0.082-0.189-0.386-0.418-0.673l-0.402-0.509h-6.277c-4.972 0-6.277-0.025-6.277-0.107 0.008-0.049 0.131-0.542 0.279-1.083l0.263-0.985 13.785-0.041 0.87-3.257c0.484-1.797 0.853-3.29 0.837-3.323-0.025-0.033-4.652-0.066-10.289-0.066h-10.24l-1.46 1.124z"></path>
<path d="M10.010 12.57c-0.049 0.107-0.73 2.601-1.518 5.555l-1.436 5.366 0.32 0.377c0.172 0.205 0.542 0.689 0.82 1.075l0.509 0.697 11.536 0.082-0.271 0.944c-0.148 0.517-0.279 1.009-0.279 1.083 0 0.14 0.271 0.148 4.546 0.148 4.267 0 4.554-0.008 4.595-0.148 0.164-0.558 3.495-12.997 3.495-13.063 0-0.057-1.854-0.082-5.694-0.082h-5.694l-0.090 0.263c-0.107 0.369-0.5 1.838-0.5 1.904 0 0.025 0.5 0.049 1.108 0.049s1.108 0.025 1.108 0.057c0 0.041-0.115 0.533-0.263 1.108l-0.271 1.050h-2.273c-2.117 0-2.281-0.008-2.281-0.148 0.008-0.074 0.386-1.551 0.853-3.282 0.459-1.723 0.82-3.151 0.804-3.175-0.025-0.025-2.068-0.041-4.546-0.041h-4.496l-0.082 0.181z"></path>
</symbol>
<symbol id="icon-logo2" viewBox="0 0 46 32">
<path d="M0 16v16h45.988v-32h-45.988v16zM38.304 3.162c1.265 0.307 3.583 1.169 4.005 1.495 0.23 0.192 0.345 3.966 0.115 4.196-0.057 0.077-0.556-0.096-1.111-0.345-2.165-0.996-3.813-1.284-7.109-1.303-3.564 0-4.407 0.134-11.018 1.82-5.844 1.495-8.259 1.897-11.171 1.897-2.702 0-4.388-0.307-6.592-1.188l-1.59-0.632v-2.146c0-1.188 0.038-2.165 0.077-2.165s0.556 0.211 1.169 0.479c1.514 0.671 3.813 1.207 5.902 1.341 2.568 0.192 5.691-0.287 11.305-1.705 4.35-1.111 7.875-1.878 9.715-2.108 1.207-0.153 5.059 0.077 6.304 0.364zM38.745 11.861c0.805 0.23 1.993 0.632 2.625 0.901l1.169 0.517v2.069c0 1.207-0.077 2.089-0.192 2.089-0.096 0-0.632-0.192-1.188-0.402-3.104-1.245-6.592-1.59-10.52-1.035-1.303 0.172-4.522 0.881-7.166 1.533-7.454 1.878-7.607 1.916-11.401 1.916-3.641 0-4.599-0.172-7.032-1.265l-1.207-0.537v-2.108c0-1.169 0.038-2.127 0.077-2.127s0.479 0.192 0.977 0.402c1.437 0.632 3.2 1.092 5.193 1.322 3.085 0.364 6.189-0.096 13.777-2.012 3.622-0.939 6.228-1.475 8.144-1.705 1.533-0.192 5.289 0.057 6.745 0.441zM38.802 20.465c0.747 0.192 1.859 0.575 2.491 0.824l1.15 0.46 0.057 2.184 0.057 2.165-0.441-0.096c-0.249-0.058-0.958-0.326-1.59-0.575-2.491-1.054-6.438-1.36-10.213-0.786-1.131 0.153-4.407 0.901-7.281 1.629-5.921 1.475-8.335 1.897-11.095 1.897-2.74 0-5.384-0.556-7.377-1.571l-0.728-0.345v-2.127c0-1.954 0.019-2.127 0.345-1.993 3.392 1.456 6.208 1.935 9.658 1.61 2.51-0.23 4.752-0.69 10.577-2.165 2.299-0.594 5.020-1.207 6.036-1.36 2.472-0.364 6.534-0.249 8.354 0.249z"></path>
</symbol>
</defs>
</svg>
