<svg viewBox="0 0 28 32" fill="none" version="1.1" xmlns="http://www.w3.org/2000/svg" xmlns:xlink="http://www.w3.org/1999/xlink">


<path fill="#ff6d00" d="M5.25 3.668c-0.066 0.139-1.731 6.318-1.731 6.449 0 0.033 3.085 0.057 6.859 0.057 6.49 0 6.851 0.008 6.81 0.139-0.016 0.082-0.131 0.517-0.254 0.968-0.115 0.451-0.23 0.886-0.254 0.96-0.041 0.139-0.386 0.148-5.76 0.148h-5.727l-1.444 1.108c-0.796 0.615-1.469 1.173-1.493 1.255-0.025 0.074-0.558 2.068-1.198 4.431-0.976 3.618-1.132 4.316-1.050 4.431 0.386 0.525 1.469 1.895 1.567 1.969 0.090 0.074 2.65 0.090 10.404 0.082l10.281-0.025 0.878-3.257c0.476-1.797 0.853-3.282 0.829-3.307s-3.102-0.041-6.843-0.041c-6.416 0-6.794-0.008-6.786-0.148 0-0.074 0.123-0.566 0.263-1.083l0.263-0.944 11.528-0.082 1.395-1.067c1.346-1.026 1.403-1.083 1.518-1.477 0.066-0.23 0.599-2.215 1.19-4.423l1.075-4.012-0.205-0.295c-0.115-0.164-0.501-0.665-0.845-1.116l-0.64-0.821-10.273-0.025c-9.723-0.016-10.281-0.008-10.355 0.123z"></path>



</svg>
