<svg  viewBox="0 0 29 32" fill="none" version="1.1" xmlns="http://www.w3.org/2000/svg" xmlns:xlink="http://www.w3.org/1999/xlink">


<path fill="#ff6d00" d="M6.8 4.652l-1.461 1.132-1.132 4.185c-0.624 2.297-1.149 4.3-1.182 4.431-0.041 0.23 0.049 0.377 0.788 1.337l0.829 1.083h5.735c3.159 0 5.744 0.025 5.744 0.049 0 0.066-0.394 1.534-0.501 1.895l-0.090 0.271h-13.76l-0.082 0.304c-0.049 0.172-0.435 1.633-0.862 3.249-0.435 1.625-0.788 2.978-0.788 3.020s4.16 0.074 10.297 0.074h10.297l1.403-1.075c0.771-0.599 1.436-1.157 1.477-1.255 0.123-0.287 2.617-9.616 2.617-9.78-0.008-0.082-0.189-0.386-0.418-0.673l-0.402-0.509h-6.277c-4.972 0-6.277-0.025-6.277-0.107 0.008-0.049 0.131-0.542 0.279-1.083l0.263-0.985 13.785-0.041 0.87-3.257c0.484-1.797 0.853-3.29 0.837-3.323-0.025-0.033-4.652-0.066-10.289-0.066h-10.24l-1.46 1.124z"></path>

</svg>
