<svg   viewBox="0 0 31 32" fill="none" version="1.1" xmlns="http://www.w3.org/2000/svg" xmlns:xlink="http://www.w3.org/1999/xlink">
<path fill="#ff6d00" d="M0 3.996c0.96 1.009 2.33 2.437 3.979 4.152 0.952 0.993 1.756 1.846 1.789 1.912 0.057 0.098 1.132 0.115 6.95 0.115 3.791 0 6.892 0.016 6.892 0.049 0 0.057-0.5 1.92-0.55 2.059-0.033 0.090 0.829 0.107 4.554 0.107h4.587l0.131-0.476c0.476-1.707 2.191-8.213 2.191-8.295 0-0.066-3.897-0.090-15.483-0.090h-15.483l0.443 0.468z"></path>
<path  fill="#ff6d00" d="M5.251 12.57c-0.049 0.107-0.73 2.601-1.518 5.555l-1.436 5.366 0.32 0.377c0.172 0.205 0.542 0.689 0.82 1.075l0.509 0.697 11.536 0.082-0.271 0.944c-0.148 0.517-0.279 1.009-0.279 1.083 0 0.14 0.271 0.148 4.546 0.148 4.267 0 4.554-0.008 4.595-0.148 0.164-0.558 3.495-12.997 3.495-13.063 0-0.057-1.854-0.082-5.694-0.082h-5.694l-0.090 0.263c-0.107 0.369-0.5 1.838-0.5 1.904 0 0.025 0.5 0.049 1.108 0.049s1.108 0.025 1.108 0.057c0 0.041-0.115 0.533-0.263 1.108l-0.271 1.050h-2.273c-2.117 0-2.281-0.008-2.281-0.148 0.008-0.074 0.386-1.551 0.853-3.282 0.459-1.723 0.82-3.151 0.804-3.175-0.025-0.025-2.068-0.041-4.546-0.041h-4.496l-0.082 0.181z"></path>
</svg>
